<svg width="146" height="38" viewBox="0 0 146 38" fill="none" xmlns="http://www.w3.org/2000/svg">
<path d="M22.0315 2.88679C19.9718 4.86698 19.0225 8.46735 18.9297 10.1641L21.8724 11.9138L24.1789 10.1641C23.9933 9.39524 23.7335 7.38042 24.1789 5.47163C24.6242 3.56284 26.6974 2.55542 27.6783 2.29031C27.9832 2.36984 28.585 2.36984 28.5532 1.73358C28.5214 1.09731 27.4795 0.93824 26.9625 0.938235C26.26 0.858702 23.7812 1.2046 22.0315 2.88679Z" fill="#485B30"/>
<path d="M22.0315 2.88484C19.9718 4.86503 19.0225 8.4654 18.9297 10.1621L21.8724 11.9118C21.7001 9.8935 22.1031 5.81706 22.8666 4.38546C23.6301 2.95387 25.0935 1.68134 26.6046 1.48251L26.9625 0.936282C26.26 0.856749 23.7812 1.20264 22.0315 2.88484Z" fill="#5F755C"/>
<path d="M31.9313 8.5879C28.8136 8.36521 26.0989 9.66159 25.1312 10.3376L25.7277 35.7086C27.0267 36.0798 30.3247 36.6471 33.1242 35.9472C35.9238 35.2473 38.6385 32.3417 39.646 30.9764C40.6269 29.6906 42.6762 26.2124 43.0261 22.5857C43.4635 18.0523 41.6741 15.4277 40.6799 13.7973C39.6857 12.1669 35.8284 8.86627 31.9313 8.5879Z" fill="url(#paint0_linear_9727_6025)"/>
<path d="M11.1625 8.5879C14.2802 8.36521 16.9949 9.66159 17.9625 10.3376L17.3661 35.7086C16.067 36.0798 12.7691 36.6471 9.9695 35.9472C7.16994 35.2473 4.45522 32.3417 3.4478 30.9764C2.46689 29.6906 0.417583 26.2124 0.0676378 22.5857C-0.369793 18.0523 1.4197 15.4277 2.41386 13.7973C3.40802 12.1669 7.26537 8.86627 11.1625 8.5879Z" fill="url(#paint1_linear_9727_6025)"/>
<path d="M10.3299 13.7247C12.3085 11.3028 16.267 10.5214 17.5514 10.6405C18.0142 18.7539 18.7472 34.9845 18.1415 35.3778C17.5499 35.7619 16.4391 35.9604 15.2242 36.159C10.892 33.9989 8.39984 28.6128 7.9124 26.1776C7.42495 23.7424 6.56625 18.3316 10.3299 13.7247Z" fill="url(#paint2_linear_9727_6025)"/>
<path d="M32.8557 13.7247C30.877 11.3028 26.9185 10.5214 25.6342 10.6405C25.1713 18.7539 24.4384 34.9845 25.0441 35.3778C25.6356 35.7619 26.7464 35.9604 27.9614 36.159C32.2935 33.9989 34.7857 28.6128 35.2732 26.1776C35.7606 23.7424 36.6193 18.3316 32.8557 13.7247Z" fill="url(#paint3_linear_9727_6025)"/>
<path d="M4.69615 12.6597C8.09492 9.11764 12.9676 9.23988 14.7571 10.1942C5.27959 11.5009 3.82129 17.5084 3.82129 21.647C3.82129 28.5237 7.08214 32.437 8.95117 34.3723C7.16167 33.6962 4.45757 30.8728 3.38388 29.2026C2.31018 27.5324 1.11719 24.8652 1.11719 21.3686C1.11719 18.1421 2.2948 15.1623 4.69615 12.6597Z" fill="url(#paint4_linear_9727_6025)"/>
<path d="M38.6124 12.6363C35.2137 9.0942 30.341 9.21644 28.5515 10.1708C38.029 11.4775 39.4873 17.4849 39.4873 21.6236C39.4873 28.5002 36.2265 32.4135 34.3574 34.3488C36.1469 33.6728 38.851 30.8494 39.9247 29.1792C40.9984 27.509 42.1914 24.8417 42.1914 21.3452C42.1914 18.1186 41.0138 15.1389 38.6124 12.6363Z" fill="url(#paint5_linear_9727_6025)"/>
<path d="M18.8101 10.1517C19.8918 9.9608 21.1961 10.841 21.7131 11.3049C22.23 10.841 23.5344 9.9608 24.616 10.1517C25.9681 10.3903 34.0804 12.44 34.0804 22.2804C34.0804 30.1144 28.5794 34.8069 25.5307 36.1589C25.0667 36.4638 23.6537 37.0735 21.7131 37.0735C19.7725 37.0735 18.3594 36.4638 17.8955 36.1589C14.8467 34.8069 9.3457 30.1144 9.3457 22.2804C9.3457 12.44 17.4581 10.3903 18.8101 10.1517Z" fill="url(#paint6_linear_9727_6025)"/>
<path d="M9.18808 21.8394C9.79241 13.719 15.4567 10.8234 18.2132 10.3906C15.3374 10.9677 10.0628 14.1282 9.58565 21.8394C9.10556 29.599 15.0988 34.6782 17.8554 36.2388C14.7145 34.8225 8.58375 29.9597 9.18808 21.8394Z" fill="url(#paint7_linear_9727_6025)"/>
<path d="M34.3168 21.9184C33.7125 13.798 28.0085 10.7433 25.2519 10.3105C28.1277 10.8876 33.4421 14.2072 33.9192 21.9184C34.3993 29.678 28.2471 34.6777 25.4905 36.2383C28.6314 34.8219 34.9211 30.0387 34.3168 21.9184Z" fill="url(#paint8_linear_9727_6025)"/>
<path d="M17.4579 11.3041C18.6031 10.795 19.4992 11.3836 19.8041 11.7415C19.8041 11.7415 19.2871 11.7813 18.4123 12.2187C17.5374 12.6561 14.5549 15.6545 14.5549 22.3989C14.5549 29.1433 17.6567 34.3289 19.2076 36.0786C18.9557 35.9725 18.1657 35.5934 17.0204 34.9254C15.5888 34.0903 11.4531 29.7159 11.4531 22.3989C11.4531 15.0819 16.0263 11.9403 17.4579 11.3041Z" fill="url(#paint9_linear_9727_6025)"/>
<path d="M26.046 11.3041C24.9008 10.795 24.0047 11.3836 23.6998 11.7415C23.6998 11.7415 24.2168 11.7813 25.0917 12.2187C25.9665 12.6561 28.949 15.6545 28.949 22.3989C28.949 29.1433 25.8472 34.3289 24.2963 36.0786C24.5482 35.9725 25.3382 35.5934 26.4835 34.9254C27.9151 34.0903 32.0508 29.7159 32.0508 22.3989C32.0508 15.0819 27.4776 11.9403 26.046 11.3041Z" fill="url(#paint10_linear_9727_6025)"/>
<path d="M143.312 25.5182C143.312 26.1544 143.514 26.4725 143.916 26.4725C144.319 26.4725 144.712 26.3135 145.094 25.9954L145.348 26.3135C144.563 27.183 143.641 27.6178 142.58 27.6178C141.817 27.6178 141.265 27.4269 140.926 27.0452C140.608 26.6422 140.449 25.9954 140.449 25.1046V20.2372C140.449 19.0071 140.056 18.392 139.272 18.392C138.508 18.392 137.883 18.9116 137.395 19.9508C136.928 20.9901 136.695 22.3474 136.695 24.0229C136.695 24.6592 136.748 25.1788 136.854 25.5818C136.96 25.9635 137.13 26.3347 137.363 26.6952L137.617 27.0134L137.363 27.3315H132.75L132.559 26.7907L133.005 26.6952C133.344 26.6104 133.567 26.4832 133.673 26.3135C133.779 26.1226 133.832 25.7621 133.832 25.2318V19.0283C133.832 18.6253 133.694 18.4238 133.418 18.4238H132.4L132.305 18.0739C132.729 17.7133 133.259 17.4164 133.895 17.1831C134.532 16.9498 135.168 16.8332 135.804 16.8332C136.08 16.8332 136.292 16.8968 136.44 17.024C136.61 17.1513 136.695 17.321 136.695 17.533V20.269C136.992 19.2722 137.522 18.445 138.286 17.7876C139.049 17.1089 139.855 16.7695 140.703 16.7695C141.615 16.7695 142.273 17.0665 142.676 17.6603C143.1 18.2541 143.312 19.1979 143.312 20.4917V25.5182Z" fill="#FEFEFE"/>
<path d="M129.507 25.5192C129.507 26.1555 129.709 26.4736 130.112 26.4736C130.515 26.4736 130.907 26.3146 131.289 25.9964L131.543 26.3146C130.759 27.1841 129.836 27.6189 128.776 27.6189C128.012 27.6189 127.461 27.428 127.121 27.0463C126.782 26.6433 126.612 25.9964 126.612 25.1057V18.8067C126.612 18.5097 126.475 18.3613 126.199 18.3613H125.213L125.117 18.0113C125.541 17.6508 126.072 17.3539 126.708 17.1206C127.344 16.8873 127.98 16.7706 128.617 16.7706C128.871 16.7706 129.083 16.8342 129.253 16.9615C129.423 17.0888 129.507 17.2584 129.507 17.4705V25.5192ZM126.294 13.7166C126.294 13.3348 126.506 12.9106 126.931 12.444C127.355 11.9774 127.747 11.7441 128.108 11.7441C128.489 11.7441 128.892 11.9774 129.317 12.444C129.762 12.9106 129.985 13.3348 129.985 13.7166C129.985 14.1195 129.762 14.5543 129.317 15.0209C128.892 15.4663 128.489 15.689 128.108 15.689C127.747 15.689 127.355 15.4663 126.931 15.0209C126.506 14.5543 126.294 14.1195 126.294 13.7166Z" fill="#FEFEFE"/>
<path d="M125.187 26.3782C124.445 27.2053 123.522 27.6189 122.419 27.6189C121.74 27.6189 121.2 27.4705 120.797 27.1735C120.415 26.8766 120.118 26.3782 119.906 25.6783L118.92 22.8788C118.792 22.5182 118.623 22.2425 118.411 22.0516C118.22 21.8607 117.955 21.7229 117.615 21.638V24.024C117.615 24.6815 117.658 25.2011 117.743 25.5829C117.849 25.9646 118.018 26.3358 118.252 26.6963L118.506 27.0145L118.252 27.3326H113.639L113.448 26.7918L113.893 26.6963C114.233 26.6115 114.455 26.4842 114.561 26.3146C114.667 26.1237 114.72 25.7631 114.72 25.2329V13.7484C114.72 13.4514 114.583 13.303 114.307 13.303H113.321L113.193 12.9849C113.596 12.6031 114.116 12.3062 114.752 12.0941C115.41 11.8608 116.057 11.7441 116.693 11.7441C116.969 11.7441 117.191 11.8078 117.361 11.935C117.531 12.0411 117.615 12.2001 117.615 12.4122V21.0336L119.524 19.6338C119.97 19.3157 120.277 19.0612 120.447 18.8703C120.616 18.6794 120.701 18.4779 120.701 18.2658C120.701 17.9689 120.574 17.7144 120.32 17.5023L120.065 17.3114L120.32 16.9933H124.169L124.36 17.5341C123.83 17.6614 123.236 17.9583 122.578 18.4249L118.824 21.1608C119.757 21.2669 120.479 21.4896 120.988 21.8289C121.497 22.1683 121.868 22.6561 122.101 23.2923L122.992 25.8374C123.14 26.304 123.437 26.5373 123.883 26.5373C124.201 26.5373 124.551 26.3782 124.932 26.0601L125.187 26.3782Z" fill="#FEFEFE"/>
<path d="M108.249 16.7695C109.33 16.7695 110.2 17.2467 110.857 18.2011C111.536 19.1343 111.875 20.3644 111.875 21.8915C111.875 22.9731 111.674 23.9487 111.271 24.8183C110.889 25.6666 110.338 26.3347 109.617 26.8225C108.917 27.2891 108.122 27.5224 107.231 27.5224C106.722 27.5224 106.234 27.4482 105.767 27.2997C105.322 27.13 104.94 26.8967 104.622 26.5998V30.2265C104.622 30.7355 104.686 31.0749 104.813 31.2445C104.961 31.4354 105.29 31.5839 105.799 31.6899L106.213 31.7853L106.022 32.3262H101.091L100.836 32.008L101.091 31.6899C101.345 31.3506 101.515 30.9794 101.6 30.5764C101.706 30.1947 101.759 29.6751 101.759 29.0176V19.0283C101.759 18.6465 101.621 18.4556 101.345 18.4556H100.359L100.264 18.1057C100.667 17.7451 101.186 17.4482 101.823 17.2149C102.48 16.9816 103.116 16.865 103.731 16.865C104.007 16.865 104.219 16.9286 104.368 17.0558C104.537 17.1831 104.622 17.3528 104.622 17.5649V18.9646C105.152 18.2011 105.704 17.6497 106.276 17.3104C106.87 16.9498 107.528 16.7695 108.249 16.7695ZM106.022 26.5998C106.891 26.5998 107.549 26.2286 107.994 25.4863C108.461 24.744 108.694 23.6518 108.694 22.2096C108.694 20.9583 108.524 20.0039 108.185 19.3464C107.846 18.6677 107.358 18.3284 106.722 18.3284C105.873 18.3284 105.174 18.8904 104.622 20.0145V26.1862C105.025 26.4619 105.492 26.5998 106.022 26.5998Z" fill="#FEFEFE"/>
<path d="M90.7519 17.6285C91.1549 18.1799 91.3669 19.0601 91.3881 20.269H91.4518C91.7487 19.251 92.2365 18.4132 92.9152 17.7557C93.5939 17.0983 94.315 16.7695 95.0785 16.7695C95.9905 16.7695 96.6479 17.0771 97.0509 17.6921C97.4751 18.286 97.6872 19.2191 97.6872 20.4917V25.5182C97.6872 26.1544 97.8886 26.4725 98.2916 26.4725C98.6946 26.4725 99.0869 26.3135 99.4687 25.9954L99.7232 26.3135C98.9385 27.183 98.0159 27.6178 96.9554 27.6178C96.1707 27.6178 95.6193 27.4163 95.3012 27.0134C94.983 26.5892 94.824 25.8575 94.824 24.8183V20.2372C94.824 19.0071 94.421 18.392 93.6151 18.392C92.9364 18.392 92.4062 18.9646 92.0244 20.1099C91.6426 21.234 91.4518 22.5383 91.4518 24.0229C91.473 24.6804 91.526 25.2 91.6108 25.5818C91.7169 25.9635 91.8866 26.3347 92.1198 26.6952L92.3744 27.0134L92.1198 27.3315H88.5886V20.2372C88.5886 19.0071 88.1856 18.392 87.3797 18.392C86.701 18.392 86.1708 18.9646 85.789 20.1099C85.4073 21.234 85.2164 22.5383 85.2164 24.0229C85.2164 24.6804 85.2588 25.2 85.3436 25.5818C85.4497 25.9635 85.63 26.3347 85.8845 26.6952L86.139 27.0134L85.8845 27.3315H81.2716L81.0807 26.7907L81.5261 26.6952C81.8654 26.6104 82.0881 26.4832 82.1941 26.3135C82.3002 26.1226 82.3532 25.7621 82.3532 25.2318V19.0283C82.3532 18.7101 82.2153 18.5511 81.9396 18.5511H80.9216L80.8262 18.2329C81.2503 17.8724 81.7806 17.5755 82.4168 17.3422C83.0531 17.1089 83.6894 16.9922 84.3256 16.9922C84.6013 16.9922 84.8134 17.0558 84.9619 17.1831C85.1316 17.2891 85.2164 17.4482 85.2164 17.6603V20.269C85.4921 19.2934 85.9587 18.4662 86.6162 17.7876C87.2736 17.1089 88.016 16.7695 88.8431 16.7695C89.7127 16.7695 90.3489 17.0558 90.7519 17.6285Z" fill="#FEFEFE"/>
<path d="M74.917 24.4365C74.6201 25.3697 74.1005 26.1332 73.3582 26.7271C72.6371 27.3209 71.863 27.6178 71.0358 27.6178C70.1027 27.6178 69.4134 27.3209 68.968 26.7271C68.5226 26.1332 68.2999 25.2212 68.2999 23.9911V18.8056C68.2999 18.5087 68.1621 18.3602 67.8863 18.3602H66.9001L66.8047 18.0102C67.2289 17.6497 67.7591 17.3528 68.3953 17.1195C69.0316 16.8862 69.6573 16.7695 70.2723 16.7695C70.548 16.7695 70.7601 16.8332 70.9086 16.9604C71.0783 17.0877 71.1631 17.2573 71.1631 17.4694V23.8321C71.1631 24.5532 71.2691 25.1152 71.4812 25.5182C71.6933 25.8999 71.9902 26.0908 72.372 26.0908C73.1567 26.0908 73.7824 25.6136 74.249 24.6592C74.7368 23.6836 74.9807 22.4217 74.9807 20.8734C74.9807 20.0463 74.917 19.41 74.7898 18.9646C74.6838 18.498 74.4823 18.0951 74.1853 17.7557L73.899 17.4058L74.1535 17.1195L77.812 16.8332V25.5182C77.812 26.1544 78.0029 26.4725 78.3847 26.4725C78.7876 26.4725 79.18 26.3135 79.5618 25.9954L79.8163 26.3135C79.074 27.183 78.1514 27.6178 77.0485 27.6178C76.2426 27.6178 75.6806 27.3845 75.3624 26.9179C75.0655 26.4513 74.917 25.6242 74.917 24.4365Z" fill="#FEFEFE"/>
<path d="M62.0203 16.7695C63.1019 16.7695 63.9715 17.2467 64.6289 18.2011C65.3076 19.1343 65.647 20.3644 65.647 21.8915C65.647 22.9731 65.4455 23.9487 65.0425 24.8183C64.6608 25.6666 64.1093 26.3347 63.3882 26.8225C62.6883 27.2891 61.893 27.5224 61.0022 27.5224C60.4932 27.5224 60.0054 27.4482 59.5388 27.2997C59.0935 27.13 58.7117 26.8967 58.3936 26.5998V30.2265C58.3936 30.7355 58.4572 31.0749 58.5844 31.2445C58.7329 31.4354 59.0616 31.5839 59.5706 31.6899L59.9842 31.7853L59.7933 32.3262H54.8623L54.6078 32.008L54.8623 31.6899C55.1168 31.3506 55.2865 30.9794 55.3713 30.5764C55.4774 30.1947 55.5304 29.6751 55.5304 29.0176V19.0283C55.5304 18.6465 55.3925 18.4556 55.1168 18.4556H54.1306L54.0352 18.1057C54.4381 17.7451 54.9577 17.4482 55.594 17.2149C56.2515 16.9816 56.8877 16.865 57.5028 16.865C57.7785 16.865 57.9906 16.9286 58.1391 17.0558C58.3087 17.1831 58.3936 17.3528 58.3936 17.5649V18.9646C58.9238 18.2011 59.4752 17.6497 60.0478 17.3104C60.6417 16.9498 61.2992 16.7695 62.0203 16.7695ZM59.7933 26.5998C60.6629 26.5998 61.3204 26.2286 61.7658 25.4863C62.2324 24.744 62.4656 23.6518 62.4656 22.2096C62.4656 20.9583 62.296 20.0039 61.9566 19.3464C61.6173 18.6677 61.1295 18.3284 60.4932 18.3284C59.6449 18.3284 58.945 18.8904 58.3936 20.0145V26.1862C58.7965 26.4619 59.2631 26.5998 59.7933 26.5998Z" fill="#FEFEFE"/>
<defs>
<linearGradient id="paint0_linear_9727_6025" x1="34.1125" y1="8.5625" x2="34.1125" y2="36.2792" gradientUnits="userSpaceOnUse">
<stop stop-color="#FFC506"/>
<stop offset="1" stop-color="#FF6010"/>
</linearGradient>
<linearGradient id="paint1_linear_9727_6025" x1="8.98127" y1="8.5625" x2="8.98127" y2="36.2792" gradientUnits="userSpaceOnUse">
<stop stop-color="#FFC708"/>
<stop offset="1" stop-color="#FF5E10"/>
</linearGradient>
<linearGradient id="paint2_linear_9727_6025" x1="13.6635" y1="10.6277" x2="13.6635" y2="36.2515" gradientUnits="userSpaceOnUse">
<stop stop-color="#FDB806"/>
<stop offset="1" stop-color="#E0430C"/>
</linearGradient>
<linearGradient id="paint3_linear_9727_6025" x1="29.5221" y1="10.6277" x2="29.5221" y2="36.2515" gradientUnits="userSpaceOnUse">
<stop stop-color="#FDB806"/>
<stop offset="1" stop-color="#E0430C"/>
</linearGradient>
<linearGradient id="paint4_linear_9727_6025" x1="7.93538" y1="9.5153" x2="7.93538" y2="34.3721" gradientUnits="userSpaceOnUse">
<stop stop-color="#FFDE64"/>
<stop offset="1" stop-color="#FE731A"/>
</linearGradient>
<linearGradient id="paint5_linear_9727_6025" x1="35.3732" y1="9.49186" x2="35.3732" y2="34.3487" gradientUnits="userSpaceOnUse">
<stop stop-color="#FFDE64"/>
<stop offset="1" stop-color="#FE731A"/>
</linearGradient>
<linearGradient id="paint6_linear_9727_6025" x1="21.7131" y1="10.125" x2="21.7131" y2="37.0735" gradientUnits="userSpaceOnUse">
<stop stop-color="#FDD710"/>
<stop offset="1" stop-color="#FB630F"/>
</linearGradient>
<linearGradient id="paint7_linear_9727_6025" x1="13.6799" y1="10.3906" x2="13.6799" y2="36.2388" gradientUnits="userSpaceOnUse">
<stop stop-color="#FFEB6D"/>
<stop offset="1" stop-color="#FC941E"/>
</linearGradient>
<linearGradient id="paint8_linear_9727_6025" x1="29.825" y1="10.4696" x2="29.825" y2="36.3178" gradientUnits="userSpaceOnUse">
<stop stop-color="#FFEB6D"/>
<stop offset="1" stop-color="#FC941E"/>
</linearGradient>
<linearGradient id="paint9_linear_9727_6025" x1="15.6286" y1="11.1055" x2="15.6286" y2="36.0786" gradientUnits="userSpaceOnUse">
<stop stop-color="#FFE95E"/>
<stop offset="1" stop-color="#FC851C"/>
</linearGradient>
<linearGradient id="paint10_linear_9727_6025" x1="27.8753" y1="11.1055" x2="27.8753" y2="36.0786" gradientUnits="userSpaceOnUse">
<stop stop-color="#FFE95E"/>
<stop offset="1" stop-color="#FC851C"/>
</linearGradient>
</defs>
</svg>
