<svg width="44" height="38" viewBox="0 0 44 38" fill="none" xmlns="http://www.w3.org/2000/svg">
<path d="M22.0315 2.88679C19.9718 4.86698 19.0225 8.46735 18.9297 10.1641L21.8724 11.9138L24.1789 10.1641C23.9933 9.39524 23.7335 7.38042 24.1789 5.47163C24.6242 3.56284 26.6974 2.55542 27.6783 2.29031C27.9832 2.36984 28.585 2.36984 28.5532 1.73358C28.5214 1.09731 27.4795 0.93824 26.9625 0.938235C26.26 0.858702 23.7812 1.2046 22.0315 2.88679Z" fill="#485B30"/>
<path d="M22.0315 2.88484C19.9718 4.86503 19.0225 8.4654 18.9297 10.1621L21.8724 11.9118C21.7001 9.8935 22.1031 5.81706 22.8666 4.38546C23.6301 2.95387 25.0935 1.68134 26.6046 1.48251L26.9625 0.936282C26.26 0.856749 23.7812 1.20264 22.0315 2.88484Z" fill="#5F755C"/>
<path d="M31.9313 8.5879C28.8136 8.36521 26.0989 9.66159 25.1312 10.3376L25.7277 35.7086C27.0267 36.0798 30.3247 36.6471 33.1242 35.9472C35.9238 35.2473 38.6385 32.3417 39.646 30.9764C40.6269 29.6906 42.6762 26.2124 43.0261 22.5857C43.4635 18.0523 41.6741 15.4277 40.6799 13.7973C39.6857 12.1669 35.8284 8.86627 31.9313 8.5879Z" fill="url(#paint0_linear_9623_20938)"/>
<path d="M11.1625 8.5879C14.2802 8.36521 16.9949 9.66159 17.9625 10.3376L17.3661 35.7086C16.067 36.0798 12.7691 36.6471 9.9695 35.9472C7.16994 35.2473 4.45522 32.3417 3.4478 30.9764C2.46689 29.6906 0.417583 26.2124 0.0676378 22.5857C-0.369793 18.0523 1.4197 15.4277 2.41386 13.7973C3.40802 12.1669 7.26537 8.86627 11.1625 8.5879Z" fill="url(#paint1_linear_9623_20938)"/>
<path d="M10.3299 13.7247C12.3085 11.3028 16.267 10.5214 17.5514 10.6405C18.0142 18.7539 18.7472 34.9845 18.1415 35.3778C17.5499 35.7619 16.4391 35.9604 15.2242 36.159C10.892 33.9989 8.39984 28.6128 7.9124 26.1776C7.42495 23.7424 6.56625 18.3316 10.3299 13.7247Z" fill="url(#paint2_linear_9623_20938)"/>
<path d="M32.8557 13.7247C30.877 11.3028 26.9185 10.5214 25.6342 10.6405C25.1713 18.7539 24.4384 34.9845 25.0441 35.3778C25.6356 35.7619 26.7464 35.9604 27.9614 36.159C32.2935 33.9989 34.7857 28.6128 35.2732 26.1776C35.7606 23.7424 36.6193 18.3316 32.8557 13.7247Z" fill="url(#paint3_linear_9623_20938)"/>
<path d="M4.69615 12.6597C8.09492 9.11764 12.9676 9.23988 14.7571 10.1942C5.27959 11.5009 3.82129 17.5084 3.82129 21.647C3.82129 28.5237 7.08214 32.437 8.95117 34.3723C7.16167 33.6962 4.45757 30.8728 3.38388 29.2026C2.31018 27.5324 1.11719 24.8652 1.11719 21.3686C1.11719 18.1421 2.2948 15.1623 4.69615 12.6597Z" fill="url(#paint4_linear_9623_20938)"/>
<path d="M38.6124 12.6363C35.2137 9.0942 30.341 9.21644 28.5515 10.1708C38.029 11.4775 39.4873 17.4849 39.4873 21.6236C39.4873 28.5002 36.2265 32.4135 34.3574 34.3488C36.1469 33.6728 38.851 30.8494 39.9247 29.1792C40.9984 27.509 42.1914 24.8417 42.1914 21.3452C42.1914 18.1186 41.0138 15.1389 38.6124 12.6363Z" fill="url(#paint5_linear_9623_20938)"/>
<path d="M18.8101 10.1517C19.8918 9.9608 21.1961 10.841 21.7131 11.3049C22.23 10.841 23.5344 9.9608 24.616 10.1517C25.9681 10.3903 34.0804 12.44 34.0804 22.2804C34.0804 30.1144 28.5794 34.8069 25.5307 36.1589C25.0667 36.4638 23.6537 37.0735 21.7131 37.0735C19.7725 37.0735 18.3594 36.4638 17.8955 36.1589C14.8467 34.8069 9.3457 30.1144 9.3457 22.2804C9.3457 12.44 17.4581 10.3903 18.8101 10.1517Z" fill="url(#paint6_linear_9623_20938)"/>
<path d="M9.18808 21.8394C9.79241 13.719 15.4567 10.8234 18.2132 10.3906C15.3374 10.9677 10.0628 14.1282 9.58565 21.8394C9.10556 29.599 15.0988 34.6782 17.8554 36.2388C14.7145 34.8225 8.58375 29.9597 9.18808 21.8394Z" fill="url(#paint7_linear_9623_20938)"/>
<path d="M34.3168 21.9184C33.7125 13.798 28.0085 10.7433 25.2519 10.3105C28.1277 10.8876 33.4421 14.2072 33.9192 21.9184C34.3993 29.678 28.2471 34.6777 25.4905 36.2383C28.6314 34.8219 34.9211 30.0387 34.3168 21.9184Z" fill="url(#paint8_linear_9623_20938)"/>
<path d="M17.4579 11.3041C18.6031 10.795 19.4992 11.3836 19.8041 11.7415C19.8041 11.7415 19.2871 11.7813 18.4123 12.2187C17.5374 12.6561 14.5549 15.6545 14.5549 22.3989C14.5549 29.1433 17.6567 34.3289 19.2076 36.0786C18.9557 35.9725 18.1657 35.5934 17.0204 34.9254C15.5888 34.0903 11.4531 29.7159 11.4531 22.3989C11.4531 15.0819 16.0263 11.9403 17.4579 11.3041Z" fill="url(#paint9_linear_9623_20938)"/>
<path d="M26.046 11.3041C24.9008 10.795 24.0047 11.3836 23.6998 11.7415C23.6998 11.7415 24.2168 11.7813 25.0917 12.2187C25.9665 12.6561 28.949 15.6545 28.949 22.3989C28.949 29.1433 25.8472 34.3289 24.2963 36.0786C24.5482 35.9725 25.3382 35.5934 26.4835 34.9254C27.9151 34.0903 32.0508 29.7159 32.0508 22.3989C32.0508 15.0819 27.4776 11.9403 26.046 11.3041Z" fill="url(#paint10_linear_9623_20938)"/>
<defs>
<linearGradient id="paint0_linear_9623_20938" x1="34.1125" y1="8.5625" x2="34.1125" y2="36.2792" gradientUnits="userSpaceOnUse">
<stop stop-color="#FFC506"/>
<stop offset="1" stop-color="#FF6010"/>
</linearGradient>
<linearGradient id="paint1_linear_9623_20938" x1="8.98127" y1="8.5625" x2="8.98127" y2="36.2792" gradientUnits="userSpaceOnUse">
<stop stop-color="#FFC708"/>
<stop offset="1" stop-color="#FF5E10"/>
</linearGradient>
<linearGradient id="paint2_linear_9623_20938" x1="13.6635" y1="10.6277" x2="13.6635" y2="36.2515" gradientUnits="userSpaceOnUse">
<stop stop-color="#FDB806"/>
<stop offset="1" stop-color="#E0430C"/>
</linearGradient>
<linearGradient id="paint3_linear_9623_20938" x1="29.5221" y1="10.6277" x2="29.5221" y2="36.2515" gradientUnits="userSpaceOnUse">
<stop stop-color="#FDB806"/>
<stop offset="1" stop-color="#E0430C"/>
</linearGradient>
<linearGradient id="paint4_linear_9623_20938" x1="7.93538" y1="9.5153" x2="7.93538" y2="34.3721" gradientUnits="userSpaceOnUse">
<stop stop-color="#FFDE64"/>
<stop offset="1" stop-color="#FE731A"/>
</linearGradient>
<linearGradient id="paint5_linear_9623_20938" x1="35.3732" y1="9.49186" x2="35.3732" y2="34.3487" gradientUnits="userSpaceOnUse">
<stop stop-color="#FFDE64"/>
<stop offset="1" stop-color="#FE731A"/>
</linearGradient>
<linearGradient id="paint6_linear_9623_20938" x1="21.7131" y1="10.125" x2="21.7131" y2="37.0735" gradientUnits="userSpaceOnUse">
<stop stop-color="#FDD710"/>
<stop offset="1" stop-color="#FB630F"/>
</linearGradient>
<linearGradient id="paint7_linear_9623_20938" x1="13.6799" y1="10.3906" x2="13.6799" y2="36.2388" gradientUnits="userSpaceOnUse">
<stop stop-color="#FFEB6D"/>
<stop offset="1" stop-color="#FC941E"/>
</linearGradient>
<linearGradient id="paint8_linear_9623_20938" x1="29.825" y1="10.4696" x2="29.825" y2="36.3178" gradientUnits="userSpaceOnUse">
<stop stop-color="#FFEB6D"/>
<stop offset="1" stop-color="#FC941E"/>
</linearGradient>
<linearGradient id="paint9_linear_9623_20938" x1="15.6286" y1="11.1055" x2="15.6286" y2="36.0786" gradientUnits="userSpaceOnUse">
<stop stop-color="#FFE95E"/>
<stop offset="1" stop-color="#FC851C"/>
</linearGradient>
<linearGradient id="paint10_linear_9623_20938" x1="27.8753" y1="11.1055" x2="27.8753" y2="36.0786" gradientUnits="userSpaceOnUse">
<stop stop-color="#FFE95E"/>
<stop offset="1" stop-color="#FC851C"/>
</linearGradient>
</defs>
</svg>
